<svg id="Layer_1" xmlns="http://www.w3.org/2000/svg" xmlns:xlink="http://www.w3.org/1999/xlink" viewBox="0 0 624.4 1234.1"><style>.st0,.st1{fill:none;stroke:#939598;stroke-width:3}.st1{stroke-dasharray:6,6}.st2{fill:#939598}.st3{fill:url(#SVGID_1_)}.st4{fill:#58595b}.st5{fill:#fff}.st6{font-family:&apos;OpenSans-Light&apos;}.st7{font-size:14.572px}.st8{fill:none;stroke:#fff;stroke-width:.4857}.st9{fill:#bd2427}.st10{clip-path:url(#SVGID_5_);fill:none;stroke:#fff;stroke-width:.6172;stroke-miterlimit:10}.st11{fill:#f68b1f}.st12{fill:#7c7d7d}.st13{font-family:&apos;OpenSans&apos;}.st14{font-size:16px}.st15{font-family:&apos;OpenSans-Semibold&apos;}.st16{font-size:18px}.st17{clip-path:url(#SVGID_9_);fill:none;stroke:#fff;stroke-width:.6172;stroke-miterlimit:10}.st18{fill:#9cc93e}.st19{clip-path:url(#SVGID_11_);fill:none;stroke:#fff;stroke-width:.6172;stroke-miterlimit:10}.st20{fill:#327cbe}.st21{clip-path:url(#SVGID_13_);fill:none;stroke:#fff;stroke-width:.6172;stroke-miterlimit:10}.st22,.st23,.st24,.st25,.st26{fill:#fff;stroke:url(#SVGID_14_);stroke-width:3;stroke-miterlimit:10}.st23,.st24,.st25,.st26{stroke:url(#SVGID_15_)}.st24,.st25,.st26{stroke:url(#SVGID_16_)}.st25,.st26{fill:url(#SVGID_17_);stroke:url(#SVGID_18_);stroke-width:2.9144}.st26{fill:none;stroke:url(#SVGID_19_)}.st27{fill:#fff;stroke:url(#SVGID_20_)}.st27,.st28,.st29,.st30{stroke-width:3;stroke-miterlimit:10}.st28{stroke-dasharray:6,6;fill:none;stroke:#939598}.st29,.st30{fill:url(#SVGID_21_);stroke:url(#SVGID_22_)}.st30{fill:none;stroke:url(#SVGID_23_);stroke-width:2.9144}.st31,.st32,.st33,.st34{fill:url(#SVGID_24_);stroke:url(#SVGID_25_);stroke-width:3;stroke-miterlimit:10}.st32,.st33,.st34{fill:none;stroke:url(#SVGID_26_);stroke-width:2.9144}.st33,.st34{fill:url(#SVGID_27_);stroke:url(#SVGID_28_)}.st34{fill:none;stroke:url(#SVGID_29_)}</style><path class="st0" d="M320.7 1124.6v-104.9"/><path class="st1" d="M166.9 1151.1h84.5"/><path class="st2" d="M253.9 1151l-.1-8.6 7.4 4.3 7.5 4.2-7.4 4.3-7.4 4.3v-8.5z"/><path class="st0" d="M320.7 799.7V694.8"/><path class="st2" d="M320.5 696.2l-8.5.1 4.2-7.4 4.2-7.5 4.3 7.4 4.4 7.4h-8.6z"/><path class="st0" d="M320.7 477.2v-105m0-200.1V67.2h144.8"/><linearGradient id="SVGID_1_" gradientUnits="userSpaceOnUse" x1="501.305" y1="-335.497" x2="608.095" y2="-425.103" gradientTransform="translate(0 450)"><stop offset="0" stop-color="#8077b7"/><stop offset="1" stop-color="#77c5e3"/></linearGradient><circle class="st3" cx="554.7" cy="69.7" r="69.7"/><path class="st4" d="M351.8 350h-63.6c-1.3 0-2.3-1-2.3-2.3v-73.4c0-1.3 1-2.3 2.3-2.3h63.6c1.3 0 2.3 1 2.3 2.3v73.4c0 1.3-1.1 2.3-2.3 2.3z"/><text transform="translate(293.731 316.675)" class="st5 st6 st7">DNSKEY</text><path class="st8" d="M295.1 295.6h49.8m-49.8 31h49.8"/><path class="st4" d="M351.8 210.2h-63.6c-1.3 0-2.3-1-2.3-2.3v-73.4c0-1.3 1-2.3 2.3-2.3h63.6c1.3 0 2.3 1 2.3 2.3v73.4c0 1.2-1.1 2.3-2.3 2.3z"/><text transform="translate(293.731 176.784)" class="st5 st6 st7">DNSKEY</text><path class="st8" d="M295.1 155.7h49.8m-49.8 31.1h49.8"/><path class="st4" d="M343 202.6h21.6l4 3.7v1.5l-3.4 3.4H364l-1.4-1.2h-1.7l-.9 1.4h-1.1l-1.1-.9h-1.4l-1.1 1.1h-.8l-1.2-1h-2l-1.9 2.2h-1l-.8-.7h-4.9c.2-.1.5-9.4.3-9.5z"/><path id="SVGID_2_" class="st9" d="M343 202.6h21.6l4 3.7v1.5l-3.4 3.4H364l-1.4-1.2h-1.7l-.9 1.4h-1.1l-1.1-.9h-1.4l-1.1 1.1h-.8l-1.2-1h-2l-1.9 2.2h-1l-.8-.7h-4.9c.2-.1.5-9.4.3-9.5z"/><defs><path id="SVGID_3_" d="M343 202.6h21.6l4 3.7v1.5l-3.4 3.4H364l-1.4-1.2h-1.7l-.9 1.4h-1.1l-1.1-.9h-1.4l-1.1 1.1h-.8l-1.2-1h-2l-1.9 2.2h-1l-.8-.7h-4.9c.2-.1.5-9.4.3-9.5z"/></defs><clipPath id="SVGID_5_"><use xlink:href="#SVGID_3_" overflow="visible"/></clipPath><path class="st10" d="M344.8 204.9h23.3"/><circle class="st9" cx="334.7" cy="207.2" r="9.6"/><circle class="st5" cx="330.2" cy="207.2" r="2.4"/><circle class="st5" cx="349.6" cy="347" r="16.6"/><circle class="st11" cx="349.6" cy="347" r="14.7"/><path class="st5" d="M353.3 345.7l-.6 3.1h2.9v1.8h-3.3l-.9 4.5h-1.9l.9-4.5h-2.7l-.9 4.5h-1.9l.8-4.5H343v-1.8h3.1l.6-3.1h-2.9v-1.8h3.2l.9-4.6h2l-.9 4.6h2.7l.9-4.6h1.9l-.9 4.6h2.7v1.8h-3zm-5.2 3h2.7l.6-3.1h-2.7l-.6 3.1z"/><text transform="translate(370.284 164.99)" class="st12 st13 st14">Public</text><text transform="translate(370.284 184.99)" class="st12 st13 st14">KSK</text><text transform="translate(525.301 59.184)" class="st5 st15 st16">Private</text><text transform="translate(502.301 79.184)" class="st5 st15 st16">Root-Signing</text><text transform="translate(539.501 99.184)" class="st5 st15 st16">Key</text><text transform="translate(370.284 304.232)" class="st12 st13 st14">Hashed</text><text transform="translate(370.284 324.232)" class="st12 st13 st14">KSK</text><path class="st4" d="M351.8 671.3h-63.6c-1.3 0-2.3-1-2.3-2.3v-73.4c0-1.3 1-2.3 2.3-2.3h63.6c1.3 0 2.3 1 2.3 2.3V669c0 1.3-1.1 2.3-2.3 2.3z"/><text transform="translate(293.731 637.96)" class="st5 st6 st7">DNSKEY</text><path class="st8" d="M295.1 616.9h49.8m-49.8 31h49.8"/><path class="st4" d="M351.8 531.4h-63.6c-1.3 0-2.3-1-2.3-2.3v-73.4c0-1.3 1-2.3 2.3-2.3h63.6c1.3 0 2.3 1 2.3 2.3v73.4c0 1.3-1.1 2.3-2.3 2.3z"/><text transform="translate(293.731 498.068)" class="st5 st6 st7">DNSKEY</text><path class="st8" d="M295.1 477h49.8m-49.8 31h49.8"/><path class="st4" d="M343 523.9h21.6l4 3.7v1.5l-3.4 3.4H364l-1.4-1.2h-1.7l-.9 1.4h-1.1l-1.1-.9h-1.4l-1.1 1.1h-.8l-1.2-1h-2l-1.9 2.2h-1l-.8-.7h-4.9c.2-.1.5-9.4.3-9.5z"/><path id="SVGID_4_" class="st11" d="M343 523.9h21.6l4 3.7v1.5l-3.4 3.4H364l-1.4-1.2h-1.7l-.9 1.4h-1.1l-1.1-.9h-1.4l-1.1 1.1h-.8l-1.2-1h-2l-1.9 2.2h-1l-.8-.7h-4.9c.2-.1.5-9.4.3-9.5z"/><defs><path id="SVGID_7_" d="M343 523.9h21.6l4 3.7v1.5l-3.4 3.4H364l-1.4-1.2h-1.7l-.9 1.4h-1.1l-1.1-.9h-1.4l-1.1 1.1h-.8l-1.2-1h-2l-1.9 2.2h-1l-.8-.7h-4.9c.2-.1.5-9.4.3-9.5z"/></defs><clipPath id="SVGID_9_"><use xlink:href="#SVGID_7_" overflow="visible"/></clipPath><path class="st17" d="M344.8 526.2h23.3"/><circle class="st11" cx="334.7" cy="528.5" r="9.6"/><circle class="st5" cx="330.2" cy="528.5" r="2.4"/><circle class="st5" cx="349.6" cy="668.3" r="16.6"/><circle class="st18" cx="349.6" cy="668.3" r="14.7"/><path class="st5" d="M353.3 666.9l-.6 3.1h2.9v1.8h-3.3l-.9 4.5h-1.9l.9-4.5h-2.7l-.9 4.5h-1.9l.8-4.5H343V670h3.1l.6-3.1h-2.9v-1.8h3.2l.9-4.6h2l-.9 4.6h2.7l.9-4.6h1.9l-.9 4.6h2.7v1.8h-3zm-5.2 3.1h2.7l.6-3.1h-2.7l-.6 3.1z"/><text transform="translate(370.284 486.273)" class="st12 st13 st14">Public</text><text transform="translate(370.284 506.273)" class="st12 st13 st14">KSK</text><text transform="translate(370.284 625.518)" class="st12 st13 st14">Hashed</text><text transform="translate(370.284 645.518)" class="st12 st13 st14">KSK</text><path class="st4" d="M351.8 994.8h-63.6c-1.3 0-2.3-1-2.3-2.3v-73.4c0-1.3 1-2.3 2.3-2.3h63.6c1.3 0 2.3 1 2.3 2.3v73.4c0 1.3-1.1 2.3-2.3 2.3z"/><text transform="translate(293.731 961.44)" class="st5 st6 st7">DNSKEY</text><path class="st8" d="M295.1 940.4h49.8m-49.8 31h49.8"/><path class="st4" d="M351.8 854.9h-63.6c-1.3 0-2.3-1-2.3-2.3v-73.4c0-1.3 1-2.3 2.3-2.3h63.6c1.3 0 2.3 1 2.3 2.3v73.4c0 1.3-1.1 2.3-2.3 2.3z"/><text transform="translate(293.731 821.55)" class="st5 st6 st7">DNSKEY</text><path class="st8" d="M295.1 800.5h49.8m-49.8 31h49.8"/><path class="st4" d="M343 847.3h21.6l4 3.7v1.5l-3.4 3.4H364l-1.4-1.2h-1.7l-.9 1.4h-1.1l-1.1-.9h-1.4l-1.1 1.1h-.8l-1.2-1h-2l-1.9 2.2h-1l-.8-.7h-4.9c.2 0 .5-9.3.3-9.5z"/><path id="SVGID_6_" class="st18" d="M343 847.3h21.6l4 3.7v1.5l-3.4 3.4H364l-1.4-1.2h-1.7l-.9 1.4h-1.1l-1.1-.9h-1.4l-1.1 1.1h-.8l-1.2-1h-2l-1.9 2.2h-1l-.8-.7h-4.9c.2 0 .5-9.3.3-9.5z"/><defs><path id="SVGID_10_" d="M343 847.3h21.6l4 3.7v1.5l-3.4 3.4H364l-1.4-1.2h-1.7l-.9 1.4h-1.1l-1.1-.9h-1.4l-1.1 1.1h-.8l-1.2-1h-2l-1.9 2.2h-1l-.8-.7h-4.9c.2 0 .5-9.3.3-9.5z"/></defs><clipPath id="SVGID_11_"><use xlink:href="#SVGID_10_" overflow="visible"/></clipPath><path class="st19" d="M344.8 849.7h23.3"/><circle class="st18" cx="334.7" cy="852" r="9.6"/><circle class="st5" cx="330.2" cy="852" r="2.4"/><circle class="st5" cx="349.6" cy="991.8" r="16.6"/><circle class="st20" cx="349.6" cy="991.8" r="14.7"/><path class="st5" d="M353.3 990.4l-.6 3.1h2.9v1.8h-3.3l-.9 4.5h-1.9l.9-4.5h-2.7l-.9 4.5h-1.9l.8-4.5H343v-1.8h3.1l.6-3.1h-2.9v-1.8h3.2l.9-4.6h2l-.9 4.6h2.7l.9-4.6h1.9l-.9 4.6h2.7v1.8h-3zm-5.2 3.1h2.7l.6-3.1h-2.7l-.6 3.1z"/><text transform="translate(370.284 809.756)" class="st12 st13 st14">Public</text><text transform="translate(370.284 829.756)" class="st12 st13 st14">KSK</text><text transform="translate(370.284 948.998)" class="st12 st13 st14">Hashed</text><text transform="translate(370.284 968.998)" class="st12 st13 st14">KSK</text><path class="st4" d="M351.8 1189.1h-63.6c-1.3 0-2.3-1-2.3-2.3v-73.4c0-1.3 1-2.3 2.3-2.3h63.6c1.3 0 2.3 1 2.3 2.3v73.4c0 1.3-1.1 2.3-2.3 2.3z"/><text transform="translate(293.731 1155.718)" class="st5 st6 st7">DNSKEY</text><path class="st8" d="M295.1 1134.7h49.8m-49.8 31h49.8"/><path class="st4" d="M343 1181.5h21.6l4 3.7v1.5l-3.4 3.4H364l-1.4-1.2h-1.7l-.9 1.4h-1.1l-1.1-.9h-1.4l-1.1 1.1h-.8l-1.2-1h-2l-1.9 2.2h-1l-.8-.7h-4.9c.2-.1.5-9.4.3-9.5z"/><path id="SVGID_8_" class="st20" d="M343 1181.5h21.6l4 3.7v1.5l-3.4 3.4H364l-1.4-1.2h-1.7l-.9 1.4h-1.1l-1.1-.9h-1.4l-1.1 1.1h-.8l-1.2-1h-2l-1.9 2.2h-1l-.8-.7h-4.9c.2-.1.5-9.4.3-9.5z"/><defs><path id="SVGID_12_" d="M343 1181.5h21.6l4 3.7v1.5l-3.4 3.4H364l-1.4-1.2h-1.7l-.9 1.4h-1.1l-1.1-.9h-1.4l-1.1 1.1h-.8l-1.2-1h-2l-1.9 2.2h-1l-.8-.7h-4.9c.2-.1.5-9.4.3-9.5z"/></defs><clipPath id="SVGID_13_"><use xlink:href="#SVGID_12_" overflow="visible"/></clipPath><path class="st21" d="M344.8 1183.9h23.3"/><circle class="st20" cx="334.7" cy="1186.1" r="9.6"/><circle class="st5" cx="330.2" cy="1186.1" r="2.4"/><text transform="translate(370.284 1143.924)" class="st12 st13 st14">Public</text><text transform="translate(370.284 1163.924)" class="st12 st13 st14">KSK</text><path class="st2" d="M458.8 67.7l-.1-8.6 7.4 4.2 7.5 4.2-7.4 4.4-7.4 4.3v-8.5zm-138.3 306l-8.5.1 4.2-7.4 4.2-7.5 4.3 7.4 4.4 7.3-8.6.1z"/><linearGradient id="SVGID_14_" gradientUnits="userSpaceOnUse" x1="17.803" y1="-161.383" x2="134.397" y2="-259.217" gradientTransform="translate(0 450)"><stop offset="0" stop-color="#8077b7"/><stop offset="1" stop-color="#77c5e3"/></linearGradient><circle class="st22" cx="76.1" cy="239.7" r="74.6"/><text transform="translate(37.591 279.779)" class="st12 st13 st14">Root Zone</text><linearGradient id="SVGID_15_" gradientUnits="userSpaceOnUse" x1="17.803" y1="159.817" x2="134.397" y2="61.983" gradientTransform="translate(0 450)"><stop offset="0" stop-color="#8077b7"/><stop offset="1" stop-color="#77c5e3"/></linearGradient><circle class="st23" cx="76.1" cy="560.9" r="74.6"/><text transform="translate(37.538 601.01)" class="st12 st13 st14">Com Zone</text><linearGradient id="SVGID_16_" gradientUnits="userSpaceOnUse" x1="17.803" y1="482.317" x2="134.397" y2="384.483" gradientTransform="translate(0 450)"><stop offset="0" stop-color="#f7935c"/><stop offset="1" stop-color="#ffdb70"/></linearGradient><circle class="st24" cx="76.1" cy="883.4" r="74.6"/><text transform="translate(35.789 919.651)" class="st12 st13 st14">CloudFlare</text><text transform="translate(58.689 937.151)" class="st12 st13 st14">Zone</text><linearGradient id="SVGID_17_" gradientUnits="userSpaceOnUse" x1="40.224" y1="446.803" x2="111.976" y2="386.597" gradientTransform="translate(0 450)"><stop offset="0" stop-color="#f7935c"/><stop offset="1" stop-color="#ffdb70"/></linearGradient><linearGradient id="SVGID_18_" gradientUnits="userSpaceOnUse" x1="39.108" y1="447.74" x2="113.092" y2="385.66" gradientTransform="translate(0 450)"><stop offset="0" stop-color="#f7935c"/><stop offset="1" stop-color="#ffdb70"/></linearGradient><path class="st25" d="M122.3 883.7H29.9c-.8 0-1.4-.6-1.4-1.4v-31.2c0-.8.6-1.4 1.4-1.4h92.4c.8 0 1.4.6 1.4 1.4v31.2c0 .8-.6 1.4-1.4 1.4z"/><circle class="st5" cx="97" cy="867.1" r="3.1"/><circle class="st5" cx="106.8" cy="867.1" r="3.1"/><circle class="st5" cx="77.3" cy="867.1" r="3.1"/><circle class="st5" cx="87.1" cy="867.1" r="3.1"/><linearGradient id="SVGID_19_" gradientUnits="userSpaceOnUse" x1="55.879" y1="458.525" x2="96.221" y2="424.675" gradientTransform="translate(0 450)"><stop offset="0" stop-color="#f7935c"/><stop offset="1" stop-color="#ffdb70"/></linearGradient><path class="st26" d="M42.9 891.6h66.3"/><circle class="st5" cx="119.5" cy="880" r="21.1"/><circle class="st11" cx="119.5" cy="880" r="18.1"/><path class="st5" d="M128.3 886.2c2.2 0 4-1.8 4-4s-1.8-4-4-4v-.2c0-3.8-3.1-6.9-6.9-6.9-3.1 0-5.7 2.1-6.6 4.9-.5-.2-1.1-.4-1.7-.4-2.2 0-4 1.8-4 4 0 .5.1 1 .3 1.4h-.1c-1.4 0-2.6 1.2-2.6 2.6 0 1.4 1.2 2.6 2.6 2.6h19z"/><linearGradient id="SVGID_20_" gradientUnits="userSpaceOnUse" x1="22.289" y1="654.189" x2="129.911" y2="761.811" gradientTransform="translate(0 450)"><stop offset="0" stop-color="#8077b7"/><stop offset="1" stop-color="#77c5e3"/></linearGradient><circle class="st27" cx="76.1" cy="1158" r="74.6"/><text transform="translate(39.656 1198.138)" class="st12 st13 st14">Blog zone</text><path class="st28" d="M257.2 924.4c-15.9-17.7-53.2-30.1-96.7-30.1m96.7-51.5c-15.9 17.7-53.2 30.1-96.7 30.1"/><path class="st2" d="M252.8 848.5l-5-7 8.5-.8 8.5-.9-3.5 7.8-3.5 7.8-5-6.9zm-.5 70.3l4.6-7.2 3.9 7.6 4 7.6-8.6-.4-8.5-.4 4.6-7.2z"/><path class="st28" d="M257.2 601.8c-15.9-17.7-53.2-30.1-96.7-30.1m96.7-51.5c-15.9 17.7-53.2 30.1-96.7 30.1"/><path class="st2" d="M252.8 525.8l-5-6.9 8.5-.9 8.5-.9-3.5 7.8-3.5 7.9-5-7zm-.5 70.4l4.6-7.2 3.9 7.6 4 7.6-8.6-.4-8.5-.4 4.6-7.2z"/><path class="st28" d="M257.2 281.8c-15.9-17.7-53.2-30.1-96.7-30.1m96.7-51.5c-15.9 17.7-53.2 30.1-96.7 30.1"/><path class="st2" d="M252.8 205.9l-5-6.9 8.5-.9 8.5-.9-3.5 7.8-3.5 7.8-5-6.9zm-.5 70.4l4.6-7.2 3.9 7.5 4 7.6-8.6-.4-8.5-.3 4.6-7.2zm68.2 744.9H312l4.2-7.4 4.2-7.4 4.3 7.3 4.4 7.4-8.6.1z"/><linearGradient id="SVGID_21_" gradientUnits="userSpaceOnUse" x1="41.692" y1="-194.245" x2="164.335" y2="-297.154" gradientTransform="translate(0 450)"><stop offset="0" stop-color="#8077b7"/><stop offset=".488" stop-color="#77c5e3"/></linearGradient><linearGradient id="SVGID_22_" gradientUnits="userSpaceOnUse" x1="39.067" y1="-192.042" x2="113.117" y2="-254.177" gradientTransform="translate(0 450)"><stop offset="0" stop-color="#8077b7"/><stop offset=".864" stop-color="#77c5e3"/></linearGradient><path class="st29" d="M122.3 243.9H29.9c-.8 0-1.4-.6-1.4-1.4v-31.2c0-.8.6-1.4 1.4-1.4h92.4c.8 0 1.4.6 1.4 1.4v31.2c0 .7-.6 1.4-1.4 1.4z"/><circle class="st5" cx="97" cy="227.3" r="3.1"/><circle class="st5" cx="106.8" cy="227.3" r="3.1"/><circle class="st5" cx="77.3" cy="227.3" r="3.1"/><circle class="st5" cx="87.1" cy="227.3" r="3.1"/><linearGradient id="SVGID_23_" gradientUnits="userSpaceOnUse" x1="55.879" y1="-181.375" x2="96.221" y2="-215.225" gradientTransform="translate(0 450)"><stop offset="0" stop-color="#8077b7"/><stop offset="1" stop-color="#77c5e3"/></linearGradient><path class="st30" d="M42.9 251.7h66.3"/><linearGradient id="SVGID_24_" gradientUnits="userSpaceOnUse" x1="41.692" y1="126.955" x2="164.335" y2="24.046" gradientTransform="translate(0 450)"><stop offset="0" stop-color="#8077b7"/><stop offset=".488" stop-color="#77c5e3"/></linearGradient><linearGradient id="SVGID_25_" gradientUnits="userSpaceOnUse" x1="39.067" y1="129.158" x2="113.117" y2="67.023" gradientTransform="translate(0 450)"><stop offset="0" stop-color="#8077b7"/><stop offset=".864" stop-color="#77c5e3"/></linearGradient><path class="st31" d="M122.3 565.1H29.9c-.8 0-1.4-.6-1.4-1.4v-31.2c0-.8.6-1.4 1.4-1.4h92.4c.8 0 1.4.6 1.4 1.4v31.2c0 .7-.6 1.4-1.4 1.4z"/><circle class="st5" cx="97" cy="548.5" r="3.1"/><circle class="st5" cx="106.8" cy="548.5" r="3.1"/><circle class="st5" cx="77.3" cy="548.5" r="3.1"/><circle class="st5" cx="87.1" cy="548.5" r="3.1"/><linearGradient id="SVGID_26_" gradientUnits="userSpaceOnUse" x1="55.879" y1="139.825" x2="96.221" y2="105.975" gradientTransform="translate(0 450)"><stop offset="0" stop-color="#8077b7"/><stop offset="1" stop-color="#77c5e3"/></linearGradient><path class="st32" d="M42.9 572.9h66.3"/><linearGradient id="SVGID_27_" gradientUnits="userSpaceOnUse" x1="45.541" y1="664.641" x2="154.561" y2="773.66" gradientTransform="translate(0 450)"><stop offset="0" stop-color="#8077b7"/><stop offset=".488" stop-color="#77c5e3"/></linearGradient><linearGradient id="SVGID_28_" gradientUnits="userSpaceOnUse" x1="43.17" y1="662.269" x2="109.03" y2="728.13" gradientTransform="translate(0 450)"><stop offset="0" stop-color="#8077b7"/><stop offset=".864" stop-color="#77c5e3"/></linearGradient><path class="st33" d="M122.3 1162.2H29.9c-.8 0-1.4-.6-1.4-1.4v-31.2c0-.8.6-1.4 1.4-1.4h92.4c.8 0 1.4.6 1.4 1.4v31.2c0 .8-.6 1.4-1.4 1.4z"/><circle class="st5" cx="97" cy="1145.6" r="3.1"/><circle class="st5" cx="106.8" cy="1145.6" r="3.1"/><circle class="st5" cx="77.3" cy="1145.6" r="3.1"/><circle class="st5" cx="87.1" cy="1145.6" r="3.1"/><linearGradient id="SVGID_29_" gradientUnits="userSpaceOnUse" x1="58.787" y1="702.737" x2="93.394" y2="737.344" gradientTransform="translate(0 450)"><stop offset="0" stop-color="#8077b7"/><stop offset="1" stop-color="#77c5e3"/></linearGradient><path class="st34" d="M42.9 1170h66.3"/></svg>