<svg id="Layer_1" xmlns="http://www.w3.org/2000/svg" xmlns:xlink="http://www.w3.org/1999/xlink" viewBox="0 0 714.3 620.3"><style>.st0{fill:url(#SVGID_1_);stroke-miterlimit:10}.st0,.st1,.st2{stroke:#fff;stroke-width:1.9429}.st1{stroke-miterlimit:10;fill:url(#SVGID_2_)}.st2{fill:url(#SVGID_3_)}.st3{fill:#fff}.st4{font-family:&apos;OpenSans-Light&apos;}.st5{font-size:15.5434px}.st6{fill:none;stroke:#fff;stroke-width:.4857}.st7,.st8{fill:none;stroke:url(#SVGID_4_);stroke-width:3;stroke-miterlimit:10}.st8{stroke:url(#SVGID_5_)}.st9{fill:#7c7d7d}.st10{font-family:&apos;OpenSans&apos;}.st11{font-size:16px}.st12{fill:#58595b}.st13{font-size:14.572px}.st14{fill:#327cbe}.st15,.st16{fill:#fff;stroke:#327cbe;stroke-width:1.3867;stroke-miterlimit:10}.st16{clip-path:url(#SVGID_8_);fill:none;stroke:#fff;stroke-width:.6172}.st17{fill:url(#SVGID_10_)}.st18{fill:#9cc93e}.st19{clip-path:url(#SVGID_12_);stroke-width:.6172;stroke-miterlimit:10}.st19,.st20,.st21{fill:none;stroke:#fff}.st20{stroke-miterlimit:10;stroke-width:1.7019}.st21{stroke-width:1.5062}.st21,.st22{stroke-miterlimit:10}.st22,.st23{fill:#58595b;stroke:#fff;stroke-width:1.9429}.st24{font-size:13.6005px}.st25{fill:none;stroke:#939598;stroke-width:3;stroke-dasharray:6,6}.st26{fill:#939598}</style><linearGradient id="SVGID_1_" gradientUnits="userSpaceOnUse" x1="568.097" y1="317.197" x2="706.405" y2="455.505" gradientTransform="translate(0 -170)"><stop offset="0" stop-color="#8077b7"/><stop offset=".691" stop-color="#77c5e3"/></linearGradient><path class="st0" d="M638.4 224.7h-63.6c-1.3 0-2.3-1-2.3-2.3V149c0-1.3 1-2.3 2.3-2.3h63.6c1.3 0 2.3 1 2.3 2.3v73.4c0 1.2-1 2.3-2.3 2.3z"/><linearGradient id="SVGID_2_" gradientUnits="userSpaceOnUse" x1="567.856" y1="302.555" x2="706.163" y2="440.863" gradientTransform="translate(0 -170)"><stop offset="0" stop-color="#8077b7"/><stop offset=".691" stop-color="#77c5e3"/></linearGradient><path class="st1" d="M645.3 217.2h-63.6c-1.3 0-2.3-1-2.3-2.3v-73.4c0-1.3 1-2.3 2.3-2.3h63.6c1.3 0 2.3 1 2.3 2.3v73.4c0 1.3-1 2.3-2.3 2.3z"/><linearGradient id="SVGID_3_" gradientUnits="userSpaceOnUse" x1="568.01" y1="287.809" x2="706.318" y2="426.118" gradientTransform="translate(0 -170)"><stop offset="0" stop-color="#8077b7"/><stop offset=".691" stop-color="#77c5e3"/></linearGradient><path class="st2" d="M652.9 209.9h-63.6c-1.3 0-2.3-1-2.3-2.3v-73.4c0-1.3 1-2.3 2.3-2.3h63.6c1.3 0 2.3 1 2.3 2.3v73.4c0 1.3-1.1 2.3-2.3 2.3z"/><text transform="translate(601.401 176.506)" class="st3 st4 st5">AAAA</text><path class="st6" d="M596.2 155.5H646m-49.8 31H646"/><linearGradient id="SVGID_4_" gradientUnits="userSpaceOnUse" x1="248.906" y1="630.217" x2="395.837" y2="506.926" gradientTransform="translate(0 -170)"><stop offset="0" stop-color="#8077b7"/><stop offset="1" stop-color="#77c5e3"/></linearGradient><circle class="st7" cx="322.4" cy="398.6" r="94.4"/><linearGradient id="SVGID_5_" gradientUnits="userSpaceOnUse" x1="544.906" y1="424.716" x2="691.837" y2="301.426" gradientTransform="translate(0 -170)"><stop offset="0" stop-color="#8077b7"/><stop offset="1" stop-color="#77c5e3"/></linearGradient><circle class="st8" cx="618.4" cy="193.1" r="94.4"/><text transform="translate(565.984 254.01)" class="st9 st10 st11">Verified RRset</text><text transform="translate(20.401 315.269)" class="st9 st10 st11">RRset</text><text transform="translate(7.343 456.602)" class="st9 st10 st11">Signature</text><text transform="translate(292.647 447.887)" class="st9 st10 st11">Verified</text><text transform="translate(282.247 466.887)" class="st9 st10 st11">Public ZSK</text><path class="st12" d="M74.8 427.4H11.2c-1.3 0-2.3-1-2.3-2.3v-73.4c0-1.3 1-2.3 2.3-2.3h63.6c1.3 0 2.3 1 2.3 2.3v73.4c0 1.3-1 2.3-2.3 2.3z"/><text transform="translate(22.14 394.041)" class="st3 st4 st13">RRSIG</text><path class="st6" d="M18.1 373h49.8m-49.8 31h49.8"/><path class="st3" d="M71.7 432.6c-6.3 0-11.4-5.1-11.4-11.4s5.1-11.4 11.4-11.4 11.4 5.1 11.4 11.4c0 6.2-5.1 11.4-11.4 11.4z"/><path class="st14" d="M65.8 421.6v17.1l5.8-4.6 6 5.1v-17.3l-11.8-.3z"/><path class="st15" d="M71.7 430.5c-5.2 0-9.4-4.2-9.4-9.4s4.2-9.4 9.4-9.4 9.4 4.2 9.4 9.4-4.2 9.4-9.4 9.4z"/><path class="st14" d="M71.7 428c-3.8 0-6.8-3.1-6.8-6.8 0-3.8 3.1-6.8 6.8-6.8 3.8 0 6.8 3.1 6.8 6.8.1 3.7-3 6.8-6.8 6.8z"/><text transform="translate(5.946 615.92)" class="st9 st10 st11">Public KSK</text><path class="st12" d="M74.8 588.1H11.2c-1.3 0-2.3-1-2.3-2.3v-73.4c0-1.3 1-2.3 2.3-2.3h63.6c1.3 0 2.3 1 2.3 2.3v73.4c0 1.2-1 2.3-2.3 2.3z"/><text transform="translate(16.716 554.655)" class="st3 st4 st13">DNSKEY</text><path class="st6" d="M18.1 533.6h49.8m-49.8 31.1h49.8"/><path class="st12" d="M66.1 580.5h21.6l4 3.7v1.5l-3.4 3.4h-1.2l-1.4-1.2H84l-.9 1.4H82l-1.1-.9h-1.4l-1.1 1.1h-.8l-1.2-1h-2l-1.9 2.2h-1l-.8-.7h-4.9c.1-.1.4-9.4.3-9.5z"/><path id="SVGID_6_" class="st14" d="M66.1 580.5h21.6l4 3.7v1.5l-3.4 3.4h-1.2l-1.4-1.2H84l-.9 1.4H82l-1.1-.9h-1.4l-1.1 1.1h-.8l-1.2-1h-2l-1.9 2.2h-1l-.8-.7h-4.9c.1-.1.4-9.4.3-9.5z"/><defs><path id="SVGID_7_" d="M66.1 580.5h21.6l4 3.7v1.5l-3.4 3.4h-1.2l-1.4-1.2H84l-.9 1.4H82l-1.1-.9h-1.4l-1.1 1.1h-.8l-1.2-1h-2l-1.9 2.2h-1l-.8-.7h-4.9c.1-.1.4-9.4.3-9.5z"/></defs><clipPath id="SVGID_8_"><use xlink:href="#SVGID_7_" overflow="visible"/></clipPath><path class="st16" d="M67.9 582.8h23.2"/><circle class="st14" cx="57.7" cy="585.1" r="9.6"/><circle class="st3" cx="53.2" cy="585.1" r="2.4"/><linearGradient id="SVGID_10_" gradientUnits="userSpaceOnUse" x1="283.584" y1="508.884" x2="355.359" y2="580.659" gradientTransform="translate(0 -170)"><stop offset="0" stop-color="#8077b7"/><stop offset="1" stop-color="#77c5e3"/></linearGradient><path class="st17" d="M351.3 413.8h-63.6c-1.3 0-2.3-1-2.3-2.3v-73.4c0-1.3 1-2.3 2.3-2.3h63.6c1.3 0 2.3 1 2.3 2.3v73.4c0 1.3-1 2.3-2.3 2.3z"/><text transform="translate(293.26 380.44)" class="st3 st4 st13">DNSKEY</text><path class="st6" d="M294.6 359.4h49.9m-49.9 31h49.9"/><path class="st12" d="M342.6 406.3h21.6l4 3.7v1.5l-3.4 3.4h-1.2l-1.4-1.2h-1.7l-.9 1.4h-1.1l-1.1-.9H356l-1.1 1.1h-.8l-1.2-1h-2l-1.9 2.2h-1l-.8-.7h-4.9c.1-.1.4-9.4.3-9.5z"/><path id="SVGID_9_" class="st18" d="M342.6 406.3h21.6l4 3.7v1.5l-3.4 3.4h-1.2l-1.4-1.2h-1.7l-.9 1.4h-1.1l-1.1-.9H356l-1.1 1.1h-.8l-1.2-1h-2l-1.9 2.2h-1l-.8-.7h-4.9c.1-.1.4-9.4.3-9.5z"/><defs><path id="SVGID_11_" d="M342.6 406.3h21.6l4 3.7v1.5l-3.4 3.4h-1.2l-1.4-1.2h-1.7l-.9 1.4h-1.1l-1.1-.9H356l-1.1 1.1h-.8l-1.2-1h-2l-1.9 2.2h-1l-.8-.7h-4.9c.1-.1.4-9.4.3-9.5z"/></defs><clipPath id="SVGID_12_"><use xlink:href="#SVGID_11_" overflow="visible"/></clipPath><path class="st19" d="M344.4 408.6h23.2"/><circle class="st18" cx="334.3" cy="410.9" r="9.6"/><circle class="st3" cx="329.8" cy="410.9" r="2.4"/><circle class="st3" cx="303.8" cy="412.1" r="14.2"/><path class="st20" d="M298.3 412l3.3 5.6 8.4-10"/><circle class="st14" cx="303.8" cy="412.1" r="12.6"/><path class="st21" d="M298.9 412l2.9 4.9 7.5-8.8"/><path class="st22" d="M66.8 292.6H3.3c-1.3 0-2.3-1-2.3-2.3v-73.4c0-1.3 1-2.3 2.3-2.3h63.6c1.3 0 2.3 1 2.3 2.3v73.4c-.1 1.3-1.1 2.3-2.4 2.3zm6.9-7.5H10.1c-1.3 0-2.3-1-2.3-2.3v-73.4c0-1.3 1-2.3 2.3-2.3h63.6c1.3 0 2.3 1 2.3 2.3v73.4c0 1.3-1 2.3-2.3 2.3z"/><path class="st23" d="M81.3 277.8H17.7c-1.3 0-2.3-1-2.3-2.3v-73.4c0-1.3 1-2.3 2.3-2.3h63.6c1.3 0 2.3 1 2.3 2.3v73.4c0 1.3-1.1 2.3-2.3 2.3z"/><text transform="translate(24.91 244.436)" class="st3 st4 st24">DNSKEY</text><path class="st6" d="M24.6 223.4h49.8m-49.8 31h49.8"/><text transform="translate(297.594 116.442)" class="st9 st10 st11">RRset</text><text transform="translate(284.532 257.774)" class="st9 st10 st11">Signature</text><path class="st12" d="M352 228.6h-63.6c-1.3 0-2.3-1-2.3-2.3v-73.4c0-1.3 1-2.3 2.3-2.3H352c1.3 0 2.3 1 2.3 2.3v73.4c0 1.3-1.1 2.3-2.3 2.3z"/><text transform="translate(299.333 195.215)" class="st3 st4 st13">RRSIG</text><path class="st6" d="M295.3 174.2h49.8m-49.8 31h49.8"/><path class="st3" d="M348.9 233.7c-6.3 0-11.4-5.1-11.4-11.4 0-6.3 5.1-11.4 11.4-11.4s11.4 5.1 11.4 11.4c0 6.3-5.1 11.4-11.4 11.4z"/><path class="st14" d="M343 222.8v17.1l5.8-4.6 6 5.1V223l-11.8-.2z"/><path class="st15" d="M348.9 231.7c-5.2 0-9.4-4.2-9.4-9.4s4.2-9.4 9.4-9.4 9.4 4.2 9.4 9.4-4.2 9.4-9.4 9.4z"/><path class="st14" d="M348.9 229.2c-3.8 0-6.8-3.1-6.8-6.8 0-3.8 3.1-6.8 6.8-6.8 3.8 0 6.8 3.1 6.8 6.8.1 3.7-3 6.8-6.8 6.8z"/><path class="st22" d="M344 93.8h-63.6c-1.3 0-2.3-1-2.3-2.3V18c0-1.3 1-2.3 2.3-2.3H344c1.3 0 2.3 1 2.3 2.3v73.4c0 1.3-1 2.4-2.3 2.4zm6.9-7.5h-63.6c-1.3 0-2.3-1-2.3-2.3V10.6c0-1.3 1-2.3 2.3-2.3h63.6c1.3 0 2.3 1 2.3 2.3V84c0 1.3-1 2.3-2.3 2.3z"/><path class="st23" d="M358.5 79h-63.6c-1.3 0-2.3-1-2.3-2.3V3.3c0-1.3 1-2.3 2.3-2.3h63.6c1.3 0 2.3 1 2.3 2.3v73.4c0 1.3-1.1 2.3-2.3 2.3z"/><text transform="translate(302.101 45.608)" class="st3 st4 st24">DNSKEY</text><path class="st6" d="M301.8 24.6h49.8m-49.8 31h49.8"/><path class="st25" d="M96.5 262.2c7.3 59 54.5 104.4 111.7 104.4M96.5 527.9c7.3-59 54.5-104.4 111.7-104.4M96.8 395.1h104.9"/><path class="st26" d="M200.3 365.9l-.1-8.6 7.5 4.2 7.4 4.2-7.4 4.4-7.3 4.3-.1-8.5zm0 29l-.1-8.6 7.5 4.2 7.4 4.3-7.4 4.3-7.3 4.3-.1-8.5zm0 28.8l-.1-8.5 7.5 4.2 7.4 4.2-7.4 4.3-7.3 4.3-.1-8.5z"/><path class="st25" d="M392.9 82.2c14.7 48.3 57.1 83.1 107.2 83.1M393 305.1c14.7-48.2 57.1-83 107.1-83m-111.4-28.4h104.9"/><path class="st26" d="M492.2 164.5v-8.6l7.4 4.2 7.4 4.2-7.3 4.4-7.4 4.3-.1-8.5zm0 29V185l7.4 4.2 7.4 4.2-7.3 4.3-7.4 4.3-.1-8.5zm0 28.8v-8.5l7.4 4.2 7.4 4.2-7.3 4.3-7.4 4.4-.1-8.6z"/><circle class="st3" cx="651.2" cy="213" r="19.7"/><path class="st20" d="M643.5 213l4.6 7.6 11.7-13.8"/><circle class="st18" cx="651.2" cy="213" r="17.5"/><path class="st21" d="M644.4 213l4.1 6.8 10.3-12.2"/></svg>