<svg xmlns="http://www.w3.org/2000/svg" xmlns:xlink="http://www.w3.org/1999/xlink" viewBox="0 0 230.69 89.31"><defs><style>.cls-1{fill:#272828;}.cls-2{fill:#fff;}.cls-3{fill:url(#未命名的渐变_46);}.cls-4{fill:url(#未命名的渐变_46-2);}.cls-5{fill:url(#未命名的渐变_46-3);}.cls-6{fill:url(#未命名的渐变_46-4);}.cls-7{fill:url(#未命名的渐变_46-5);}.cls-8{fill:url(#未命名的渐变_46-6);}.cls-9{fill:url(#未命名的渐变_46-7);}.cls-10{fill:url(#未命名的渐变_46-8);}.cls-11{fill:url(#未命名的渐变_46-9);}.cls-12{fill:url(#未命名的渐变_46-10);}.cls-13{fill:url(#未命名的渐变_46-11);}</style><linearGradient id="未命名的渐变_46" x1="50.62" y1="41.93" x2="33.18" y2="41.93" gradientUnits="userSpaceOnUse"><stop offset="0" stop-color="#cf5051"/><stop offset="1" stop-color="#4e2768"/></linearGradient><linearGradient id="未命名的渐变_46-2" x1="67.36" y1="45.42" x2="50.47" y2="45.42" xlink:href="#未命名的渐变_46"/><linearGradient id="未命名的渐变_46-3" x1="82.21" y1="44.9" x2="65.35" y2="44.9" xlink:href="#未命名的渐变_46"/><linearGradient id="未命名的渐变_46-4" x1="98.53" y1="44.9" x2="81.67" y2="44.9" xlink:href="#未命名的渐变_46"/><linearGradient id="未命名的渐变_46-5" x1="113.8" y1="45.16" x2="98.74" y2="45.16" xlink:href="#未命名的渐变_46"/><linearGradient id="未命名的渐变_46-6" x1="130.18" y1="45.16" x2="115.28" y2="45.16" xlink:href="#未命名的渐变_46"/><linearGradient id="未命名的渐变_46-7" x1="143.42" y1="45.16" x2="128.36" y2="45.16" xlink:href="#未命名的渐变_46"/><linearGradient id="未命名的渐变_46-8" x1="156.38" y1="44.9" x2="142.55" y2="44.9" xlink:href="#未命名的渐变_46"/><linearGradient id="未命名的渐变_46-9" x1="169.91" y1="45.16" x2="155.02" y2="45.16" xlink:href="#未命名的渐变_46"/><linearGradient id="未命名的渐变_46-10" x1="184.09" y1="45.16" x2="169.03" y2="45.16" xlink:href="#未命名的渐变_46"/><linearGradient id="未命名的渐变_46-11" x1="195.89" y1="42.3" x2="185.15" y2="42.3" xlink:href="#未命名的渐变_46"/></defs><title>图层 1</title><g id="图层_2" data-name="图层 2"><g id="图层_1-2" data-name="图层 1"><rect class="cls-1" width="230.69" height="89.31"/><circle class="cls-2" cx="115.28" cy="44.9" r="32.41"/><path class="cls-3" d="M44.89,36.29l.12-.63c.3-1.92-.09-2.88-1.16-2.88s-1.93.79-2.22,2.35a2.76,2.76,0,0,0,1,2.8c.14.13,1.14.7,3,1.72a7.17,7.17,0,0,1,2.85,2.61,7.8,7.8,0,0,1,.54,5.3q-1.41,8.22-9.35,8.22-3.76,0-5.28-1.68c-1.08-1.2-1.41-3.14-1-5.83l.19-.93h5.65l-.13.64q-.55,3.09,1.38,3.09c1.26,0,2-.86,2.33-2.57a2.86,2.86,0,0,0-1-2.8Q41.6,45.51,39,44a7.17,7.17,0,0,1-2.73-2.47,7.89,7.89,0,0,1-.53-5.15q1.5-8.32,8.81-8.32c2.56,0,4.29.66,5.21,2s1.1,3.37.6,6.23Z"/><path class="cls-4" d="M53.3,35.06H59L56.63,48.39c-.32,1.59,0,2.38.94,2.38s1.5-.79,1.82-2.38l2.32-13.33h5.65L63.84,55.25H58.38l.41-2.46h-.06a5.07,5.07,0,0,1-4.62,3c-2.94,0-4.11-1.83-3.48-5.49Z"/><path class="cls-5" d="M68.86,35.06h5.46l-.44,2.46H74a5.11,5.11,0,0,1,4.64-3Q83,34.54,82,40L79.41,55.25H73.76l2.32-13.32c.27-1.59,0-2.39-1-2.39s-1.52.8-1.79,2.39L71,55.25H65.35Z"/><path class="cls-6" d="M85.18,35.06h5.46l-.44,2.46h.07a5.1,5.1,0,0,1,4.64-3q4.4,0,3.45,5.48L95.73,55.25H90.08L92.4,41.93c.27-1.59-.05-2.39-1-2.39s-1.52.8-1.79,2.39L87.32,55.25H81.67Z"/><path class="cls-7" d="M104.67,46.3,104.23,49c-.34,1.81,0,2.72,1,2.72s1.8-1.17,2.22-3.51h5.09q-1.41,7.62-8,7.62c-2,0-3.54-.45-4.46-1.35s-1.41-2.35-1.41-4.36a28.12,28.12,0,0,1,.5-4.89c.65-3.84,1.69-6.57,3.14-8.22a7.39,7.39,0,0,1,5.93-2.42c2.34,0,3.92.69,4.74,2.09s1,4,.37,7.61l-.37,2.06Zm3.92-4.56a6.3,6.3,0,0,0,.1-2.35,1.07,1.07,0,0,0-1.13-.75c-1,0-1.72,1-2.07,3.1l-.16.9h3.1Z"/><path class="cls-8" d="M115.28,35.06h5.83l-.94,14.52h.06l4.11-14.52h5.84l-7.66,20.19h-6.65Z"/><path class="cls-9" d="M134.29,46.3,133.85,49c-.33,1.81,0,2.72,1,2.72s1.81-1.17,2.23-3.51h5.08q-1.41,7.62-8,7.62c-2,0-3.54-.45-4.46-1.35s-1.41-2.35-1.41-4.36a28.12,28.12,0,0,1,.5-4.89c.65-3.84,1.7-6.57,3.14-8.22a7.39,7.39,0,0,1,5.93-2.42c2.35,0,3.92.69,4.74,2.09s1,4,.38,7.61l-.38,2.06Zm3.92-4.56a6.3,6.3,0,0,0,.1-2.35,1.07,1.07,0,0,0-1.13-.75c-1,0-1.72,1-2.07,3.1l-.16.9h3.11Z"/><path class="cls-10" d="M146.06,35.06h5.46L151,38.27H151q1.69-3.74,4.45-3.73h.91l-1.09,6.27a5.28,5.28,0,0,0-1.38-.15c-2.12,0-3.38,1.19-3.8,3.58l-1.92,11h-5.64Z"/><path class="cls-11" d="M160.15,49a7.54,7.54,0,0,0-.09,1.12,2.28,2.28,0,0,0,.15.86,1.1,1.1,0,0,0,1.07.71A1.84,1.84,0,0,0,163.22,50a1.72,1.72,0,0,0-1-1.86,19.39,19.39,0,0,1-2.6-1.16q-3.79-1.76-3-6.08a7.12,7.12,0,0,1,2.42-4.48,8,8,0,0,1,5.43-1.83q6.35,0,5.27,6.34h-4.89c.23-1.49-.15-2.24-1.13-2.24A1.7,1.7,0,0,0,162,40.21a1.62,1.62,0,0,0,1,1.72c.27.12.68.3,1.22.52l1.41.52c2.53,1.1,3.54,3.11,3,6.05A8.09,8.09,0,0,1,166,53.87a7.78,7.78,0,0,1-5.31,1.91q-6.65,0-5.49-6.8Z"/><path class="cls-12" d="M175,46.3,174.52,49c-.33,1.81,0,2.72,1,2.72s1.81-1.17,2.23-3.51h5.08q-1.41,7.62-8,7.62c-2.05,0-3.54-.45-4.46-1.35S169,52.08,169,50.07a28.12,28.12,0,0,1,.5-4.89c.65-3.84,1.7-6.57,3.14-8.22a7.39,7.39,0,0,1,5.93-2.42c2.34,0,3.92.69,4.74,2.09s1,4,.38,7.61l-.38,2.06Zm3.92-4.56a6.3,6.3,0,0,0,.1-2.35,1.07,1.07,0,0,0-1.13-.75c-1,0-1.72,1-2.07,3.1l-.16.9h3.11Z"/><path class="cls-13" d="M186.13,35.06H188l1-5.94h5.65l-1,5.94h2.23l-.78,4.52h-2.23l-1.69,9.63c-.19,1,.16,1.56,1.06,1.56h.88l-.75,4.48a23.12,23.12,0,0,1-3.14.23q-2.73,0-3.51-.9c-.61-.69-.74-2.11-.38-4.25l1.88-10.75h-1.88Z"/></g></g></svg>